<svg xmlns="http://www.w3.org/2000/svg"  viewBox="0 0 64 64" width="24px" height="24px"><rect width="46" height="46" x="7" y="11" fill="#c2cde7" rx="3" ry="3"/><path fill="#ced9ed" d="M53 19.84L18.27 54.57 35.25 54.57 53 36.83 53 19.84zM53 14a3 3 0 0 0-3-3H48.49L7 52.49V54a3 3 0 0 0 .72 1.93L10.46 57 53 14.46zM7 41.57L7 46.43 42.43 11 37.57 11 7 41.57z"/><path fill="#edf0f4" d="M21.5 22L22.74 24.26 25 25.5 22.74 26.74 21.5 29 20.26 26.74 18 25.5 20.26 24.26 21.5 22zM40.42 34L41.27 35.56 42.84 36.42 41.27 37.27 40.42 38.84 39.56 37.27 38 36.42 39.56 35.56 40.42 34zM16.65 41L17.23 42.06 18.3 42.65 17.23 43.23 16.65 44.3 16.07 43.23 15 42.65 16.07 42.06 16.65 41z"/><path fill="#acb7d0" d="M53,56h0a1,1,0,0,1-1,1H8a1,1,0,0,1-1-1H7a4,4,0,0,1,4-4H49A4,4,0,0,1,53,56Z"/><path fill="#8d6c9f" d="M15 50a1 1 0 0 0-1 1v2a1 1 0 0 0 2 0V51A1 1 0 0 0 15 50zM10 50a1 1 0 0 0-1 1v2a1 1 0 0 0 2 0V51A1 1 0 0 0 10 50zM30 50a1 1 0 0 0-1 1v2a1 1 0 0 0 2 0V51A1 1 0 0 0 30 50zM35 54a1 1 0 0 0 1-1V51a1 1 0 0 0-2 0v2A1 1 0 0 0 35 54zM40 54a1 1 0 0 0 1-1V51a1 1 0 0 0-2 0v2A1 1 0 0 0 40 54zM45 54a1 1 0 0 0 1-1V51a1 1 0 0 0-2 0v2A1 1 0 0 0 45 54zM50 54a1 1 0 0 0 1-1V51a1 1 0 0 0-2 0v2A1 1 0 0 0 50 54zM20 50a1 1 0 0 0-1 1v2a1 1 0 0 0 2 0V51A1 1 0 0 0 20 50zM25 50a1 1 0 0 0-1 1v2a1 1 0 0 0 2 0V51A1 1 0 0 0 25 50z"/><path fill="#8d6c9f" d="M52.51,10.07A2,2,0,0,0,52,10H9a3,3,0,0,0-3,3V55a3,3,0,0,0,3,3H51a3,3,0,0,0,3-3V12a2,2,0,0,0-.07-.51ZM52,55a1,1,0,0,1-1,1H9a1,1,0,0,1-1-1V13a1,1,0,0,1,1-1H50.59L52,13.41Z"/><path fill="#faefde" d="M28.74 31.02L53.24 6.51 47.59 6.51 47.59 0.86 63.14 0.86 63.14 16.41 57.48 16.41 57.48 10.76 32.98 35.26 28.74 31.02z"/><path fill="#8d6c9f" d="M63.14-.14H47.59a1,1,0,0,0-1,1V6.51a1,1,0,0,0,1,1h3.24L28,30.31a1,1,0,0,0,0,1.41L32.27,36a1,1,0,0,0,1.41,0l22.8-22.8v3.24a1,1,0,0,0,1,1h5.66a1,1,0,0,0,1-1V.86A1,1,0,0,0,63.14-.14Zm-1,15.56H58.49V10.76a1,1,0,0,0-1.71-.71L33,33.85,30.15,31l23.8-23.8a1,1,0,0,0-.71-1.71H48.59V1.86H62.14Z"/></svg>